<svg xmlns="http://www.w3.org/2000/svg" viewBox="0 0 48 48"><g fill="#010101"><path d="M25 21.4C21.8 15.1 22.2 7.7 22.7.6c-3.7-.3-7.4 0-11 1 1.1 5 2.2 10.1 2.1 15.3-.1 5.2-2.5 8.8-5.7 12.8-2.1 2.5-4.2 5.1-5.9 7.8-1.7 2.7-2.6 6.9-.1 9 1.3 1.1 2.3 1.2 3.9.8 1.6-.4 3.1-1.4 4.3-2.5 4.4-4 6.9-10 12-13 1.7-1 3.7-1.8 4.4-3.6.9-2.3-.6-4.7-1.7-6.8zM17.9 3.1l1.4 1.4-1.4 1.4-1.4-1.4 1.4-1.4zm-3.4 3.4 1.4-1.4 1.4 1.4-1.4 1.4-1.4-1.4zm3.4 3.4-1.4-1.4 1.4-1.4 1.4 1.4-1.4 1.4zm2-2-1.4-1.4 1.4-1.4 1.4 1.4-1.4 1.4z"/><path d="M45.6 21.4C42.4 15.1 42.8 7.7 43.3.6c-3.7-.3-7.4 0-11 1 1.1 5 2.2 10.1 2.1 15.3-.1 5.2-2.5 8.8-5.7 12.8-2.1 2.5-4.2 5.1-5.9 7.8-1.7 2.7-2.6 6.9-.1 9 1.3 1.1 2.3 1.2 3.9.8 1.6-.4 3.1-1.4 4.3-2.5 4.4-4 6.9-10 12-13 1.7-1 3.7-1.8 4.4-3.6.8-2.3-.7-4.7-1.7-6.8zM38.4 3.1l1.4 1.4-1.4 1.4L37 4.5l1.4-1.4zM35 6.5l1.4-1.4 1.4 1.4-1.4 1.4L35 6.5zm3.4 3.4L37 8.5l1.4-1.4 1.4 1.4-1.4 1.4zm2-2L39 6.5l1.4-1.4 1.4 1.4-1.4 1.4z"/></g></svg>