<svg xmlns="http://www.w3.org/2000/svg" viewBox="0 0 32 32"><path fill="#324D5B" d="M2 0h28a2 2 0 0 1 2 2v28a2 2 0 0 1-2 2H2a2 2 0 0 1-2-2V2a2 2 0 0 1 2-2z"/><path fill="#CCD0D2" d="M6 20h20a2 2 0 0 1 2 2v10H4V22a2 2 0 0 1 2-2z"/><path fill="#E4E7E7" d="M6 18h20a2 2 0 0 1 2 2v3H4v-3a2 2 0 0 1 2-2z"/><path fill="#2B414D" d="M28 0v12a2 2 0 0 1-2 2H6a2 2 0 0 1-2-2V0h24z"/><path fill="#CCD0D2" d="M14 0v11a1 1 0 0 0 1 1h10a1 1 0 0 0 1-1V0H14zm10 9a1 1 0 0 1-1 1h-1a1 1 0 0 1-1-1V3a1 1 0 0 1 1-1h1a1 1 0 0 1 1 1v6z"/></svg>