<svg xmlns="http://www.w3.org/2000/svg" viewBox="0 0 64 64"><path d="M53.723 52.222H11.148a2.062 2.062 0 0 1-2.06-2.061V23.299c0-1.136.924-2.06 2.06-2.06h10.168a.844.844 0 0 1 0 1.688H11.148a.373.373 0 0 0-.372.372v26.862c0 .205.167.372.372.372h42.574a.372.372 0 0 0 .371-.372V23.299a.372.372 0 0 0-.371-.372H43.554a.845.845 0 0 1 0-1.688h10.169c1.136 0 2.061.924 2.061 2.06v26.862a2.065 2.065 0 0 1-2.061 2.061z"/><path d="M51.289 49.289H13.582a1.453 1.453 0 0 1-1.452-1.452V25.623c0-.8.651-1.452 1.452-1.452h6.466a.844.844 0 0 1 0 1.689h-6.23v21.741h37.236V25.859h-6.23a.845.845 0 0 1 0-1.689h6.466c.801 0 1.453.652 1.453 1.452v22.214a1.456 1.456 0 0 1-1.454 1.453z"/><path d="M37.936 37.094a.845.845 0 0 1-.844-.844v-8.727a.845.845 0 0 1 1.689 0v8.727a.846.846 0 0 1-.845.844zm-5.5-19.397a4.939 4.939 0 0 1-4.933-4.933 4.939 4.939 0 0 1 4.933-4.934 4.939 4.939 0 0 1 4.933 4.934 4.94 4.94 0 0 1-4.933 4.933zm0-8.177a3.248 3.248 0 0 0-3.245 3.245 3.249 3.249 0 0 0 3.245 3.244 3.248 3.248 0 0 0 3.244-3.244 3.248 3.248 0 0 0-3.244-3.245z"/><path d="M39.392 11.56a.846.846 0 0 1-.81-.606c-.795-2.705-3.323-4.595-6.146-4.595a6.375 6.375 0 0 0-6.122 4.512.845.845 0 0 1-1.613-.499 8.056 8.056 0 0 1 7.735-5.701c3.566 0 6.761 2.388 7.766 5.808a.843.843 0 0 1-.81 1.081zM26.935 37.094a.844.844 0 0 1-.844-.844v-8.727a.844.844 0 0 1 1.688 0v8.727a.844.844 0 0 1-.844.844z"/><path d="M26.935 37.093a.844.844 0 0 1-.844-.844V30.77a.844.844 0 0 1 1.688 0v5.479a.844.844 0 0 1-.844.844zm-3.846 0a.844.844 0 0 1-.844-.844V25.645a6.497 6.497 0 0 1 5.76-6.458.844.844 0 1 1 .192 1.677 4.81 4.81 0 0 0-4.264 4.781v10.604a.844.844 0 0 1-.844.844zm18.692.001a.845.845 0 0 1-.844-.844V25.645a4.81 4.81 0 0 0-4.264-4.781.844.844 0 0 1 .192-1.677 6.498 6.498 0 0 1 5.761 6.458V36.25a.844.844 0 0 1-.845.844zM24.24 11.195v3.221a1.385 1.385 0 1 0 2.768 0v-3.221a1.384 1.384 0 1 0-2.768 0zm13.768 0v3.221a1.384 1.384 0 1 0 2.768 0v-3.221a1.383 1.383 0 1 0-2.768 0zm-7.926 34.336H16.093a.844.844 0 0 1 0-1.688h13.989a.844.844 0 0 1 0 1.688zm.001-3.648H16.095a.844.844 0 0 1 0-1.689h13.989a.844.844 0 1 1-.001 1.689zm7.712 16.116H27.076a3.89 3.89 0 0 1-3.885-3.885.844.844 0 1 1 1.688 0c0 1.212.985 2.196 2.197 2.196h10.719a2.199 2.199 0 0 0 2.197-2.196.844.844 0 1 1 1.688 0 3.889 3.889 0 0 1-3.885 3.885z"/><path d="M51.289 60.433H13.582a4.499 4.499 0 0 1-4.493-4.493v-1.825c0-.466.378-.844.844-.844h14.103c.466 0 .844.378.844.844 0 1.212.985 2.196 2.197 2.196h10.719a2.199 2.199 0 0 0 2.197-2.196c0-.466.377-.844.844-.844H54.94c.466 0 .845.378.845.844v1.825a4.502 4.502 0 0 1-4.496 4.493zm-40.513-5.474v.98a2.808 2.808 0 0 0 2.805 2.805h37.708a2.808 2.808 0 0 0 2.805-2.805v-.98H41.588a3.892 3.892 0 0 1-3.793 3.04H27.076a3.891 3.891 0 0 1-3.792-3.04H10.776z"/></svg>