<svg xmlns="http://www.w3.org/2000/svg" viewBox="0 0 512 512"><path d="M283.982 445.7a7.9 7.9 0 0 0-7.632-5.832h-40.7a7.9 7.9 0 0 0-7.632 5.832c-3.948 14.727-9.913 24.813-14.446 30.864-2.259 3.015.068 7.121 4.039 7.121h76.778c3.971 0 6.3-4.106 4.039-7.121C293.894 470.511 287.93 460.425 283.982 445.7zM249.441 106.131A233.7 233.7 0 0 1 232.6 136.019a7.817 7.817 0 0 0 2.415 10.861 160.951 160.951 0 0 0 56.878 22.053 5.067 5.067 0 0 0 4.949-8.024c-13.163-17.656-26.461-37.525-34.279-54.777A7.2 7.2 0 0 0 249.441 106.131zM158.988 309.012h33.687a98.125 98.125 0 0 1-4.409 16.918 10.053 10.053 0 0 0 3.478 11.394 180.972 180.972 0 0 0 37.226 21.555c34.622 14.847 71.142 18.1 108.93 9.781a6.212 6.212 0 0 0 3.7-9.746c-10.757-14.688-19.234-31.474-22.273-49.9h33.687a7.5 7.5 0 0 0 4.959-13.13 260.755 260.755 0 0 1-36.445-38.791 6.3 6.3 0 0 0-8.284-1.649c-14.392 8.6-36.036 18.213-62.629 19.782-.171.009-.342.014-.512.014a8.55 8.55 0 0 1-8.543-8.549 8.785 8.785 0 0 1 8.371-8.56c22.634-1.4 41.4-9.693 53.958-17.1a6.33 6.33 0 0 0 2.377-8.315 107.675 107.675 0 0 1-8.751-23.613h22.222a7.5 7.5 0 0 0 5.725-12.35q-1.159-1.365-2.414-2.856a15.353 15.353 0 0 0-10.973-5.418c-40.492-2.087-70.283-16.637-87.556-27.877a7.828 7.828 0 0 0-10.536 1.885c-10.2 13.6-20.225 25.772-27.441 34.266a7.5 7.5 0 0 0 5.725 12.35h22.222c-2.688 11.5-7.691 22.617-13.9 33a6.27 6.27 0 0 0 3.265 9.06q3.477 1.287 6.956 2.337a8.752 8.752 0 0 1 6.222 9.84 8.545 8.545 0 0 1-10.856 6.627 141.649 141.649 0 0 1-15.493-5.66 6.264 6.264 0 0 0-7.278 1.735 273.307 273.307 0 0 1-29.371 29.845A7.5 7.5 0 0 0 158.988 309.012zm135.17 23.647a8.546 8.546 0 0 1 7.62-2.306 8.884 8.884 0 0 1 1.575.479 9.6 9.6 0 0 1 1.462.773 8.445 8.445 0 0 1 0 14.03 8.571 8.571 0 0 1-1.462.774 8.76 8.76 0 0 1-1.575.491 9.25 9.25 0 0 1-1.644.156 8.368 8.368 0 0 1-7.016-3.754 7.175 7.175 0 0 1-.773-1.448 8.741 8.741 0 0 1-.493-1.575 9.6 9.6 0 0 1-.154-1.659A8.5 8.5 0 0 1 294.158 332.659zm-55.7-112a8.543 8.543 0 0 1 7.62-2.306 8.98 8.98 0 0 1 1.574.478 9.679 9.679 0 0 1 1.462.773 8.446 8.446 0 0 1 0 14.031 8.566 8.566 0 0 1-1.462.774 8.939 8.939 0 0 1-1.574.491 9.251 9.251 0 0 1-1.645.155 8.511 8.511 0 0 1-5.975-2.474 8.4 8.4 0 0 1-1.041-1.279 7.182 7.182 0 0 1-.773-1.449 8.919 8.919 0 0 1-.493-1.574 9.6 9.6 0 0 1-.153-1.659A8.5 8.5 0 0 1 238.454 220.657z"/><path d="M121.5 423H390.5a7.5 7.5 0 0 0 4.3-13.647 269.091 269.091 0 0 1-27.151-21.744 18.8 18.8 0 0 0-17.423-4.359 207.627 207.627 0 0 1-52.295 6.838 191.749 191.749 0 0 1-76.443-15.807A198.7 198.7 0 0 1 186 354.341a10.045 10.045 0 0 0-14 2.336c-16.328 23.128-38.525 41.258-54.793 52.672A7.5 7.5 0 0 0 121.5 423zm55.88-37.055A8.548 8.548 0 0 1 185 383.635a8.858 8.858 0 0 1 1.575.479 9.776 9.776 0 0 1 1.462.773 8.354 8.354 0 0 1 1.28 1.054 8.418 8.418 0 0 1 0 11.922 8.239 8.239 0 0 1-1.28 1.054 8.571 8.571 0 0 1-1.462.774 8.818 8.818 0 0 1-1.575.492 9.325 9.325 0 0 1-1.644.155 8.507 8.507 0 0 1-5.975-2.475 8.406 8.406 0 0 1-1.041-1.279 7.2 7.2 0 0 1-.773-1.448 8.9 8.9 0 0 1-.493-1.575 9.6 9.6 0 0 1-.154-1.659A8.5 8.5 0 0 1 177.384 385.941zM224.209 58.488l11.772 8.553a5.117 5.117 0 0 1 1.859 5.722l-4.5 13.839a5.121 5.121 0 0 0 4.517 6.7 5 5 0 0 0 3.359-.975l9.011-6.547 2.761-2a5.115 5.115 0 0 1 6.016 0l2.761 2.006 9.011 6.546a4.993 4.993 0 0 0 3.359.975 5.121 5.121 0 0 0 4.517-6.7l-4.5-13.839a5.117 5.117 0 0 1 1.859-5.722l11.772-8.553a5.118 5.118 0 0 0-3.008-9.259H270.232a5.117 5.117 0 0 1-4.868-3.536l-4.5-13.839a5.119 5.119 0 0 0-9.736 0l-4.5 13.839a5.119 5.119 0 0 1-4.868 3.536H227.217A5.118 5.118 0 0 0 224.209 58.488z"/></svg>